<svg width="282" height="282" viewBox="0 0 282 282" fill="none" xmlns="http://www.w3.org/2000/svg">
<circle cx="141" cy="141" r="141" fill="#05FF0E"/>
<rect x="156" y="99" width="30" height="94" rx="15" fill="white"/>
<path d="M186.5 167C182.124 167 177.927 165.262 174.833 162.167C171.738 159.073 170 154.876 170 150.5C170 146.124 171.738 141.927 174.833 138.833C177.927 135.738 182.124 134 186.5 134L186.5 150.5L186.5 167Z" fill="#5D5D5D"/>
<rect x="211" y="80" width="30" height="94" rx="15" fill="white"/>
<path d="M240.5 148C236.124 148 231.927 146.262 228.833 143.167C225.738 140.073 224 135.876 224 131.5C224 127.124 225.738 122.927 228.833 119.833C231.927 116.738 236.124 115 240.5 115L240.5 131.5L240.5 148Z" fill="#5D5D5D"/>
</svg>
